<?xml version="1.0" encoding="UTF-8" standalone="no"?>
<svg
   width="21.391998mm"
   height="27.620741mm"
   viewBox="0 0 21.391998 27.620741"
   version="1.1"
   id="svg741"
   xmlns="http://www.w3.org/2000/svg"
   xmlns:svg="http://www.w3.org/2000/svg">
  <defs
     id="defs738" />
  <g
     id="layer1"
     transform="translate(-76.172209,-127.6509)">
    <path
       d="m 95.888361,139.50018 c -2.09445,-0.76941 -5.179504,2.20945 -6.689752,6.77368 -0.749656,2.27401 -1.111608,4.94101 -0.763414,7.7343 l -0.968732,-0.40428 c -1.847153,-5.76086 -0.811394,-12.06006 2.389021,-16.60807 z"
       style="fill:#000000;fill-opacity:1;fill-rule:nonzero;stroke:none;stroke-width:0.352778"
       id="path167-6-1" />
    <path
       d="m 97.235731,149.34797 -7.167063,-2.97004 c 1.325039,-3.98921 3.753571,-6.36975 5.339666,-6.36975 0.168276,0 0.325615,0.0279 0.471666,0.0787 l 0.131939,0.0561 c 0.564094,0.27234 2.259904,1.73778 1.223792,9.20503"
       style="fill:#000000;fill-opacity:1;fill-rule:nonzero;stroke:none;stroke-width:0.352778"
       id="path171-9-8" />
    <path
       d="m 94.661536,131.62847 c -2.245793,1.21003 -4.121167,2.96192 -5.558389,5.05601 -3.147144,4.56742 -4.224885,10.76325 -2.585521,16.52658 0.196501,0.69321 0.432156,1.38113 0.710147,2.06058 l -9.586776,-3.97828 C 74.011253,142.40583 77.34043,131.8225 85.077585,127.6509 Z"
       style="fill:#000000;fill-opacity:1;fill-rule:nonzero;stroke:none;stroke-width:0.352778"
       id="path175-2-7" />
  </g>
</svg>
